<?xml version="1.0" encoding="UTF-8"?>
<svg id="Page_1" data-name="Page 1" xmlns="http://www.w3.org/2000/svg" viewBox="0 0 257.2 257.2">
  <defs>
    <style>
      .cls-1 {
        fill: #fff;
      }

      .cls-1, .cls-2, .cls-3, .cls-4, .cls-5, .cls-6 {
        stroke-miterlimit: 2.41;
      }

      .cls-1, .cls-2, .cls-3, .cls-5 {
        stroke-width: .22px;
      }

      .cls-1, .cls-3, .cls-5 {
        stroke: #231815;
      }

      .cls-7 {
        fill: #96a9b3;
      }

      .cls-7, .cls-2, .cls-3, .cls-6 {
        fill-rule: evenodd;
      }

      .cls-2, .cls-4, .cls-6 {
        stroke: #4f638f;
      }

      .cls-2, .cls-6 {
        fill: #4f638f;
      }

      .cls-3, .cls-5 {
        fill: #231815;
      }

      .cls-4 {
        fill: none;
        stroke-width: 5.67px;
      }

      .cls-6 {
        stroke-width: 1.42px;
      }
    </style>
  </defs>
  <g id="_圖層_1" data-name="圖層 1">
    <g>
      <circle class="cls-4" cx="128.6" cy="128.6" r="125.76"/>
      <path class="cls-3" d="m48.68,128.79c5.09,0,9.76,1.79,13.44,4.77l-30.06,30.06c-2.98-3.68-4.77-8.35-4.77-13.44,0-11.78,9.61-21.4,21.4-21.4h0Zm16.58,7.9c3.01,3.69,4.82,8.39,4.82,13.5,0,11.78-9.61,21.4-21.4,21.4-5.11,0-9.81-1.81-13.49-4.82l30.07-30.07h0Z"/>
      <path class="cls-7" d="m67.43,61.36h50.23s-4.83.97-5.8,7.74c-.97,6.77-.99,72.18,0,84.17.99,11.99-5.58,18.22-19.7,18.68-10.91-.01-20.84-.1-32.79-.11-.38,0-.19-.3-.58-.3,6.63-2.66,11.2-6.62,13.52-12.02l1.11-8.94-.36-80.26c-.02-4.63-2.29-5.62-5.64-8.97h0Z"/>
      <path class="cls-2" d="m176.63,61.36h54.69s-5.79.97-10.59,7.74c-4.8,6.77-41.02,72.18-46.57,84.17-5.56,11.99-16.15,18.22-31.79,18.68-11.87-.01-22.64-.1-35.64-.11-.42,0-.04-.3-.46-.3,8.69-2.66,15.86-6.62,21.37-12.02l6.16-8.94,44.02-80.26c2.54-4.63.61-5.62-1.17-8.97h0Z"/>
      <g>
        <circle class="cls-5" cx="143.77" cy="91.45" r="28.97"/>
        <circle class="cls-1" cx="143.77" cy="91.45" r="19.89"/>
        <path class="cls-3" d="m163.34,94.98c-1.5,8.32-8.21,14.86-16.6,16.13,0-.03,0-.06,0-.1,0-8.83,7.21-16.04,16.04-16.04.19,0,.37,0,.56,0h0Z"/>
        <path class="cls-3" d="m147.02,71.82c9.21,1.52,16.32,9.41,16.64,18.97-.29.01-.57.03-.86.03-8.84,0-16.04-7.21-16.04-16.04,0-1.01.09-1.99.27-2.95h0Z"/>
        <path class="cls-3" d="m123.9,90.7c.36-9.85,7.94-17.9,17.58-19.02.2,1,.3,2.03.3,3.08,0,8.84-7.21,16.04-16.04,16.04-.62,0-1.24-.04-1.84-.11h0Z"/>
        <path class="cls-3" d="m125.74,94.97c8.83,0,16.04,7.21,16.04,16.04,0,.08,0,.15,0,.22-8.83-.89-15.98-7.58-17.56-16.19.5-.05,1.01-.07,1.53-.07h0Z"/>
      </g>
      <path class="cls-6" d="m51.37,180.89h2.49l-3.51,13.58c-.31,1.18-.62,2.11-.95,2.77-.33.67-.74,1.24-1.24,1.73-.79.79-1.75,1.41-2.89,1.85-1.14.44-2.34.66-3.61.66-1.9,0-3.29-.49-4.2-1.46-.91-.97-1.15-2.26-.74-3.87h2.49c-.19,1,0,1.8.59,2.42.58.61,1.41.92,2.5.92,1.55,0,2.74-.39,3.59-1.17.85-.78,1.57-2.33,2.18-4.67l3.3-12.75h0Zm9.32,9.04h10.67l-.52,1.99h-10.67l-1.86,7.17h10.67l-.51,1.95h-13.18l5.22-20.16h13.18l-.51,1.98h-10.67l-1.83,7.06h0Zm18.49.94c-.63,2.45-.16,4.51,1.42,6.18,1.58,1.66,3.85,2.49,6.8,2.49s5.53-.84,7.95-2.52c2.42-1.68,3.95-3.75,4.59-6.2.59-2.29.08-4.26-1.54-5.92-1.61-1.66-3.86-2.49-6.75-2.49-1.17,0-2.34.16-3.51.48-1.17.32-2.29.79-3.37,1.41-1.42.81-2.62,1.8-3.62,2.98-.99,1.17-1.65,2.37-1.97,3.6h0Zm-2.6-.03c.36-1.4,1.05-2.75,2.06-4.02,1.01-1.28,2.29-2.42,3.84-3.42,1.49-.97,3.05-1.7,4.67-2.19,1.62-.49,3.3-.73,5.04-.73s3.36.25,4.75.74c1.39.49,2.58,1.23,3.59,2.21,1.03,1.01,1.71,2.13,2.03,3.38.33,1.25.31,2.59-.07,4.03-.37,1.43-.99,2.74-1.86,3.94-.86,1.19-1.98,2.28-3.35,3.26-1.58,1.13-3.26,1.97-5.04,2.55-1.77.57-3.61.86-5.51.86-3.65,0-6.45-1.02-8.39-3.05-1.95-2.04-2.53-4.56-1.76-7.55h0Zm33.59-9.96h2.49l-3.3,12.75c-.26.99-.4,1.73-.42,2.22-.03.49.02.92.16,1.3.26.77.76,1.37,1.53,1.8.76.43,1.7.65,2.81.65,1.91,0,3.46-.52,4.66-1.56,1.18-1.03,2.06-2.65,2.62-4.82l3.19-12.33h2.46l-3.32,12.82c-.68,2.61-1.83,4.56-3.47,5.84-1.63,1.28-3.79,1.92-6.45,1.92-2.85,0-4.77-.63-5.79-1.89-1.01-1.25-1.17-3.21-.48-5.88l3.32-12.82h0Zm27.01,11.63l-.48,1.84h-8.17l.48-1.84h8.17Zm11.15,1.12l-1.92,7.41h-2.46l1.92-7.43-4.81-12.73h2.86l3.77,10.47,9.25-10.47h2.78l-11.4,12.75h0Zm15.23-3.71h10.67l-.52,1.99h-10.67l-1.86,7.17h10.67l-.51,1.95h-13.18l5.22-20.16h13.18l-.51,1.98h-10.67l-1.83,7.06h0Zm19.37-9.04h2.49l-3.3,12.75c-.26.99-.4,1.73-.42,2.22-.03.49.02.92.16,1.3.26.77.76,1.37,1.53,1.8.76.43,1.7.65,2.81.65,1.91,0,3.46-.52,4.66-1.56,1.18-1.03,2.06-2.65,2.62-4.82l3.19-12.33h2.46l-3.32,12.82c-.68,2.61-1.83,4.56-3.47,5.84-1.63,1.28-3.79,1.92-6.45,1.92-2.85,0-4.77-.63-5.79-1.89-1.01-1.25-1.17-3.21-.48-5.88l3.32-12.82h0Zm34.82,17.75l4.3-17.75h2.47l-5.22,20.16h-3l-9.32-17.78-4.32,17.78h-2.46l5.22-20.16h3l9.33,17.75h0Z"/>
    </g>
  </g>
</svg>